<mxfile host="65bd71144e">
    <diagram id="C5RBs43oDa-KdzZeNtuy" name="Page-1">
        <mxGraphModel dx="1535" dy="1817" grid="1" gridSize="10" guides="1" tooltips="1" connect="1" arrows="1" fold="1" page="1" pageScale="1" pageWidth="827" pageHeight="1169" background="none" math="0" shadow="0">
            <root>
                <mxCell id="WIyWlLk6GJQsqaUBKTNV-0"/>
                <mxCell id="WIyWlLk6GJQsqaUBKTNV-1" parent="WIyWlLk6GJQsqaUBKTNV-0"/>
                <mxCell id="dlKlojqwLsHrzjU0dD4s-23" value="FichePaie" style="swimlane;fontStyle=0;align=center;verticalAlign=top;childLayout=stackLayout;horizontal=1;startSize=26;horizontalStack=0;resizeParent=1;resizeLast=0;collapsible=1;marginBottom=0;rounded=0;shadow=0;strokeWidth=1;sketch=1;curveFitting=1;jiggle=2;" parent="WIyWlLk6GJQsqaUBKTNV-1" vertex="1">
                    <mxGeometry x="-10" y="320" width="160" height="200" as="geometry">
                        <mxRectangle x="550" y="140" width="160" height="26" as="alternateBounds"/>
                    </mxGeometry>
                </mxCell>
                <mxCell id="dlKlojqwLsHrzjU0dD4s-24" value="id int:" style="text;align=left;verticalAlign=top;spacingLeft=4;spacingRight=4;overflow=hidden;rotatable=0;points=[[0,0.5],[1,0.5]];portConstraint=eastwest;sketch=1;curveFitting=1;jiggle=2;rounded=0;" parent="dlKlojqwLsHrzjU0dD4s-23" vertex="1">
                    <mxGeometry y="26" width="160" height="26" as="geometry"/>
                </mxCell>
                <mxCell id="dlKlojqwLsHrzjU0dD4s-30" value="name_categories: sstring" style="text;align=left;verticalAlign=top;spacingLeft=4;spacingRight=4;overflow=hidden;rotatable=0;points=[[0,0.5],[1,0.5]];portConstraint=eastwest;sketch=1;curveFitting=1;jiggle=2;rounded=0;" parent="dlKlojqwLsHrzjU0dD4s-23" vertex="1">
                    <mxGeometry y="52" width="160" height="26" as="geometry"/>
                </mxCell>
                <mxCell id="dlKlojqwLsHrzjU0dD4s-25" value="" style="line;html=1;strokeWidth=1;align=left;verticalAlign=middle;spacingTop=-1;spacingLeft=3;spacingRight=3;rotatable=0;labelPosition=right;points=[];portConstraint=eastwest;sketch=1;curveFitting=1;jiggle=2;rounded=0;" parent="dlKlojqwLsHrzjU0dD4s-23" vertex="1">
                    <mxGeometry y="78" width="160" height="8" as="geometry"/>
                </mxCell>
                <mxCell id="dlKlojqwLsHrzjU0dD4s-33" value="create():  void&#10;&#10;cerolkpaklclp" style="text;align=left;verticalAlign=top;spacingLeft=4;spacingRight=4;overflow=hidden;rotatable=0;points=[[0,0.5],[1,0.5]];portConstraint=eastwest;sketch=1;curveFitting=1;jiggle=2;rounded=0;" parent="dlKlojqwLsHrzjU0dD4s-23" vertex="1">
                    <mxGeometry y="86" width="160" height="26" as="geometry"/>
                </mxCell>
                <mxCell id="dlKlojqwLsHrzjU0dD4s-31" value="updete():  void&#10;&#10;cerolkpaklclp" style="text;align=left;verticalAlign=top;spacingLeft=4;spacingRight=4;overflow=hidden;rotatable=0;points=[[0,0.5],[1,0.5]];portConstraint=eastwest;sketch=1;curveFitting=1;jiggle=2;rounded=0;" parent="dlKlojqwLsHrzjU0dD4s-23" vertex="1">
                    <mxGeometry y="112" width="160" height="26" as="geometry"/>
                </mxCell>
                <mxCell id="dlKlojqwLsHrzjU0dD4s-32" value="suprimrer():  void&#10;&#10;cerolkpaklclp" style="text;align=left;verticalAlign=top;spacingLeft=4;spacingRight=4;overflow=hidden;rotatable=0;points=[[0,0.5],[1,0.5]];portConstraint=eastwest;sketch=1;curveFitting=1;jiggle=2;rounded=0;" parent="dlKlojqwLsHrzjU0dD4s-23" vertex="1">
                    <mxGeometry y="138" width="160" height="26" as="geometry"/>
                </mxCell>
                <mxCell id="dlKlojqwLsHrzjU0dD4s-34" value="delete():  void&#10;&#10;cerolkpaklclp" style="text;align=left;verticalAlign=top;spacingLeft=4;spacingRight=4;overflow=hidden;rotatable=0;points=[[0,0.5],[1,0.5]];portConstraint=eastwest;sketch=1;curveFitting=1;jiggle=2;rounded=0;" parent="dlKlojqwLsHrzjU0dD4s-23" vertex="1">
                    <mxGeometry y="164" width="160" height="26" as="geometry"/>
                </mxCell>
                <mxCell id="dlKlojqwLsHrzjU0dD4s-35" value="GestionnaireRH" style="swimlane;fontStyle=0;align=center;verticalAlign=top;childLayout=stackLayout;horizontal=1;startSize=26;horizontalStack=0;resizeParent=1;resizeLast=0;collapsible=1;marginBottom=0;rounded=0;shadow=0;strokeWidth=1;sketch=1;curveFitting=1;jiggle=2;" parent="WIyWlLk6GJQsqaUBKTNV-1" vertex="1">
                    <mxGeometry x="510" y="320" width="160" height="250" as="geometry">
                        <mxRectangle x="550" y="140" width="160" height="26" as="alternateBounds"/>
                    </mxGeometry>
                </mxCell>
                <mxCell id="dlKlojqwLsHrzjU0dD4s-36" value="listeEmployés : arry" style="text;align=left;verticalAlign=top;spacingLeft=4;spacingRight=4;overflow=hidden;rotatable=0;points=[[0,0.5],[1,0.5]];portConstraint=eastwest;sketch=1;curveFitting=1;jiggle=2;rounded=0;" parent="dlKlojqwLsHrzjU0dD4s-35" vertex="1">
                    <mxGeometry y="26" width="160" height="26" as="geometry"/>
                </mxCell>
                <mxCell id="dlKlojqwLsHrzjU0dD4s-37" value="listeCongés : arry" style="text;align=left;verticalAlign=top;spacingLeft=4;spacingRight=4;overflow=hidden;rotatable=0;points=[[0,0.5],[1,0.5]];portConstraint=eastwest;sketch=1;curveFitting=1;jiggle=2;rounded=0;" parent="dlKlojqwLsHrzjU0dD4s-35" vertex="1">
                    <mxGeometry y="52" width="160" height="26" as="geometry"/>
                </mxCell>
                <mxCell id="dlKlojqwLsHrzjU0dD4s-44" value="listeFichesPaie : arry" style="text;align=left;verticalAlign=top;spacingLeft=4;spacingRight=4;overflow=hidden;rotatable=0;points=[[0,0.5],[1,0.5]];portConstraint=eastwest;sketch=1;curveFitting=1;jiggle=2;rounded=0;" parent="dlKlojqwLsHrzjU0dD4s-35" vertex="1">
                    <mxGeometry y="78" width="160" height="26" as="geometry"/>
                </mxCell>
                <mxCell id="dlKlojqwLsHrzjU0dD4s-43" value="content: sstring" style="text;align=left;verticalAlign=top;spacingLeft=4;spacingRight=4;overflow=hidden;rotatable=0;points=[[0,0.5],[1,0.5]];portConstraint=eastwest;sketch=1;curveFitting=1;jiggle=2;rounded=0;" parent="dlKlojqwLsHrzjU0dD4s-35" vertex="1">
                    <mxGeometry y="104" width="160" height="26" as="geometry"/>
                </mxCell>
                <mxCell id="dlKlojqwLsHrzjU0dD4s-45" value="title: sstring" style="text;align=left;verticalAlign=top;spacingLeft=4;spacingRight=4;overflow=hidden;rotatable=0;points=[[0,0.5],[1,0.5]];portConstraint=eastwest;sketch=1;curveFitting=1;jiggle=2;rounded=0;" parent="dlKlojqwLsHrzjU0dD4s-35" vertex="1">
                    <mxGeometry y="130" width="160" height="26" as="geometry"/>
                </mxCell>
                <mxCell id="dlKlojqwLsHrzjU0dD4s-38" value="" style="line;html=1;strokeWidth=1;align=left;verticalAlign=middle;spacingTop=-1;spacingLeft=3;spacingRight=3;rotatable=0;labelPosition=right;points=[];portConstraint=eastwest;sketch=1;curveFitting=1;jiggle=2;rounded=0;" parent="dlKlojqwLsHrzjU0dD4s-35" vertex="1">
                    <mxGeometry y="156" width="160" height="8" as="geometry"/>
                </mxCell>
                <mxCell id="dlKlojqwLsHrzjU0dD4s-46" value="gérerEmployés():  void&#10;&#10;gérerCongés(): void()" style="text;align=left;verticalAlign=top;spacingLeft=4;spacingRight=4;overflow=hidden;rotatable=0;points=[[0,0.5],[1,0.5]];portConstraint=eastwest;sketch=1;curveFitting=1;jiggle=2;rounded=0;" parent="dlKlojqwLsHrzjU0dD4s-35" vertex="1">
                    <mxGeometry y="164" width="160" height="26" as="geometry"/>
                </mxCell>
                <mxCell id="dlKlojqwLsHrzjU0dD4s-47" value="create():  void&#10;&#10;cerolkpaklclp" style="text;align=left;verticalAlign=top;spacingLeft=4;spacingRight=4;overflow=hidden;rotatable=0;points=[[0,0.5],[1,0.5]];portConstraint=eastwest;sketch=1;curveFitting=1;jiggle=2;rounded=0;" parent="dlKlojqwLsHrzjU0dD4s-35" vertex="1">
                    <mxGeometry y="190" width="160" height="26" as="geometry"/>
                </mxCell>
                <mxCell id="dlKlojqwLsHrzjU0dD4s-48" value="gérerFichesPaie():  void&#10;&#10;cerolkpaklclp" style="text;align=left;verticalAlign=top;spacingLeft=4;spacingRight=4;overflow=hidden;rotatable=0;points=[[0,0.5],[1,0.5]];portConstraint=eastwest;sketch=1;curveFitting=1;jiggle=2;rounded=0;" parent="dlKlojqwLsHrzjU0dD4s-35" vertex="1">
                    <mxGeometry y="216" width="160" height="26" as="geometry"/>
                </mxCell>
                <mxCell id="JRaCH0oPApHVp65QEFQ3-29" style="edgeStyle=orthogonalEdgeStyle;rounded=0;orthogonalLoop=1;jettySize=auto;html=1;entryX=0.5;entryY=1;entryDx=0;entryDy=0;endArrow=diamond;endFill=1;sketch=1;curveFitting=1;jiggle=2;" parent="WIyWlLk6GJQsqaUBKTNV-1" source="dlKlojqwLsHrzjU0dD4s-58" target="dlKlojqwLsHrzjU0dD4s-67" edge="1">
                    <mxGeometry relative="1" as="geometry">
                        <Array as="points">
                            <mxPoint x="-200" y="600"/>
                            <mxPoint x="350" y="600"/>
                        </Array>
                    </mxGeometry>
                </mxCell>
                <mxCell id="dlKlojqwLsHrzjU0dD4s-58" value="emploiyer" style="swimlane;fontStyle=2;align=center;verticalAlign=top;childLayout=stackLayout;horizontal=1;startSize=26;horizontalStack=0;resizeParent=1;resizeLast=0;collapsible=1;marginBottom=0;rounded=0;shadow=0;strokeWidth=1;sketch=1;curveFitting=1;jiggle=2;" parent="WIyWlLk6GJQsqaUBKTNV-1" vertex="1">
                    <mxGeometry x="-280" y="290" width="160" height="242" as="geometry">
                        <mxRectangle x="550" y="140" width="160" height="26" as="alternateBounds"/>
                    </mxGeometry>
                </mxCell>
                <mxCell id="dlKlojqwLsHrzjU0dD4s-59" value="id : int" style="text;align=left;verticalAlign=top;spacingLeft=4;spacingRight=4;overflow=hidden;rotatable=0;points=[[0,0.5],[1,0.5]];portConstraint=eastwest;sketch=1;curveFitting=1;jiggle=2;rounded=0;" parent="dlKlojqwLsHrzjU0dD4s-58" vertex="1">
                    <mxGeometry y="26" width="160" height="26" as="geometry"/>
                </mxCell>
                <mxCell id="dlKlojqwLsHrzjU0dD4s-60" value="name:string" style="text;align=left;verticalAlign=top;spacingLeft=4;spacingRight=4;overflow=hidden;rotatable=0;points=[[0,0.5],[1,0.5]];portConstraint=eastwest;rounded=0;shadow=0;html=0;sketch=1;curveFitting=1;jiggle=2;" parent="dlKlojqwLsHrzjU0dD4s-58" vertex="1">
                    <mxGeometry y="52" width="160" height="26" as="geometry"/>
                </mxCell>
                <mxCell id="JRaCH0oPApHVp65QEFQ3-15" value="post: string" style="text;align=left;verticalAlign=top;spacingLeft=4;spacingRight=4;overflow=hidden;rotatable=0;points=[[0,0.5],[1,0.5]];portConstraint=eastwest;rounded=0;shadow=0;html=0;sketch=1;curveFitting=1;jiggle=2;" parent="dlKlojqwLsHrzjU0dD4s-58" vertex="1">
                    <mxGeometry y="78" width="160" height="26" as="geometry"/>
                </mxCell>
                <mxCell id="dlKlojqwLsHrzjU0dD4s-61" value="post: string" style="text;align=left;verticalAlign=top;spacingLeft=4;spacingRight=4;overflow=hidden;rotatable=0;points=[[0,0.5],[1,0.5]];portConstraint=eastwest;rounded=0;shadow=0;html=0;sketch=1;curveFitting=1;jiggle=2;" parent="dlKlojqwLsHrzjU0dD4s-58" vertex="1">
                    <mxGeometry y="104" width="160" height="26" as="geometry"/>
                </mxCell>
                <mxCell id="dlKlojqwLsHrzjU0dD4s-62" value="saler: floate" style="text;align=left;verticalAlign=top;spacingLeft=4;spacingRight=4;overflow=hidden;rotatable=0;points=[[0,0.5],[1,0.5]];portConstraint=eastwest;rounded=0;shadow=0;html=0;sketch=1;curveFitting=1;jiggle=2;" parent="dlKlojqwLsHrzjU0dD4s-58" vertex="1">
                    <mxGeometry y="130" width="160" height="26" as="geometry"/>
                </mxCell>
                <mxCell id="dlKlojqwLsHrzjU0dD4s-63" value="" style="line;html=1;strokeWidth=1;align=left;verticalAlign=middle;spacingTop=-1;spacingLeft=3;spacingRight=3;rotatable=0;labelPosition=right;points=[];portConstraint=eastwest;sketch=1;curveFitting=1;jiggle=2;rounded=0;" parent="dlKlojqwLsHrzjU0dD4s-58" vertex="1">
                    <mxGeometry y="156" width="160" height="8" as="geometry"/>
                </mxCell>
                <mxCell id="dlKlojqwLsHrzjU0dD4s-65" value="consulterInformations() arry" style="text;align=left;verticalAlign=top;spacingLeft=4;spacingRight=4;overflow=hidden;rotatable=0;points=[[0,0.5],[1,0.5]];portConstraint=eastwest;sketch=1;curveFitting=1;jiggle=2;rounded=0;" parent="dlKlojqwLsHrzjU0dD4s-58" vertex="1">
                    <mxGeometry y="164" width="160" height="26" as="geometry"/>
                </mxCell>
                <mxCell id="dlKlojqwLsHrzjU0dD4s-66" value="vew_articles(): void" style="text;align=left;verticalAlign=top;spacingLeft=4;spacingRight=4;overflow=hidden;rotatable=0;points=[[0,0.5],[1,0.5]];portConstraint=eastwest;sketch=1;curveFitting=1;jiggle=2;rounded=0;" parent="dlKlojqwLsHrzjU0dD4s-58" vertex="1">
                    <mxGeometry y="190" width="160" height="26" as="geometry"/>
                </mxCell>
                <mxCell id="JRaCH0oPApHVp65QEFQ3-0" value="demanderCongé() ; void" style="text;align=left;verticalAlign=top;spacingLeft=4;spacingRight=4;overflow=hidden;rotatable=0;points=[[0,0.5],[1,0.5]];portConstraint=eastwest;sketch=1;curveFitting=1;jiggle=2;rounded=0;" parent="dlKlojqwLsHrzjU0dD4s-58" vertex="1">
                    <mxGeometry y="216" width="160" height="26" as="geometry"/>
                </mxCell>
                <mxCell id="dlKlojqwLsHrzjU0dD4s-67" value="congre " style="swimlane;fontStyle=0;align=center;verticalAlign=top;childLayout=stackLayout;horizontal=1;startSize=26;horizontalStack=0;resizeParent=1;resizeLast=0;collapsible=1;marginBottom=0;rounded=0;shadow=0;strokeWidth=1;sketch=1;curveFitting=1;jiggle=2;" parent="WIyWlLk6GJQsqaUBKTNV-1" vertex="1">
                    <mxGeometry x="270" y="310" width="160" height="230" as="geometry">
                        <mxRectangle x="550" y="140" width="160" height="26" as="alternateBounds"/>
                    </mxGeometry>
                </mxCell>
                <mxCell id="dlKlojqwLsHrzjU0dD4s-68" value="-id:&#10;&#10;&#10;" style="text;align=left;verticalAlign=top;spacingLeft=4;spacingRight=4;overflow=hidden;rotatable=0;points=[[0,0.5],[1,0.5]];portConstraint=eastwest;sketch=1;curveFitting=1;jiggle=2;rounded=0;" parent="dlKlojqwLsHrzjU0dD4s-67" vertex="1">
                    <mxGeometry y="26" width="160" height="24" as="geometry"/>
                </mxCell>
                <mxCell id="JRaCH0oPApHVp65QEFQ3-2" value="-employee:&#10;&#10;" style="text;align=left;verticalAlign=top;spacingLeft=4;spacingRight=4;overflow=hidden;rotatable=0;points=[[0,0.5],[1,0.5]];portConstraint=eastwest;sketch=1;curveFitting=1;jiggle=2;rounded=0;" parent="dlKlojqwLsHrzjU0dD4s-67" vertex="1">
                    <mxGeometry y="50" width="160" height="24" as="geometry"/>
                </mxCell>
                <mxCell id="JRaCH0oPApHVp65QEFQ3-3" value="-dateDebut&#10;" style="text;align=left;verticalAlign=top;spacingLeft=4;spacingRight=4;overflow=hidden;rotatable=0;points=[[0,0.5],[1,0.5]];portConstraint=eastwest;sketch=1;curveFitting=1;jiggle=2;rounded=0;" parent="dlKlojqwLsHrzjU0dD4s-67" vertex="1">
                    <mxGeometry y="74" width="160" height="24" as="geometry"/>
                </mxCell>
                <mxCell id="JRaCH0oPApHVp65QEFQ3-4" value="-dateFin" style="text;align=left;verticalAlign=top;spacingLeft=4;spacingRight=4;overflow=hidden;rotatable=0;points=[[0,0.5],[1,0.5]];portConstraint=eastwest;sketch=1;curveFitting=1;jiggle=2;rounded=0;" parent="dlKlojqwLsHrzjU0dD4s-67" vertex="1">
                    <mxGeometry y="98" width="160" height="24" as="geometry"/>
                </mxCell>
                <mxCell id="JRaCH0oPApHVp65QEFQ3-5" value="-type" style="text;align=left;verticalAlign=top;spacingLeft=4;spacingRight=4;overflow=hidden;rotatable=0;points=[[0,0.5],[1,0.5]];portConstraint=eastwest;sketch=1;curveFitting=1;jiggle=2;rounded=0;" parent="dlKlojqwLsHrzjU0dD4s-67" vertex="1">
                    <mxGeometry y="122" width="160" height="24" as="geometry"/>
                </mxCell>
                <mxCell id="JRaCH0oPApHVp65QEFQ3-6" value="-status ENUM( attente, approuvé, refusé)" style="text;align=left;verticalAlign=top;spacingLeft=4;spacingRight=4;overflow=hidden;rotatable=0;points=[[0,0.5],[1,0.5]];portConstraint=eastwest;sketch=1;curveFitting=1;jiggle=2;rounded=0;" parent="dlKlojqwLsHrzjU0dD4s-67" vertex="1">
                    <mxGeometry y="146" width="160" height="24" as="geometry"/>
                </mxCell>
                <mxCell id="dlKlojqwLsHrzjU0dD4s-69" value="" style="line;html=1;strokeWidth=1;align=left;verticalAlign=middle;spacingTop=-1;spacingLeft=3;spacingRight=3;rotatable=0;labelPosition=right;points=[];portConstraint=eastwest;sketch=1;curveFitting=1;jiggle=2;rounded=0;" parent="dlKlojqwLsHrzjU0dD4s-67" vertex="1">
                    <mxGeometry y="170" width="160" height="10" as="geometry"/>
                </mxCell>
                <mxCell id="dlKlojqwLsHrzjU0dD4s-70" value="changerStatut(): void()" style="text;align=left;verticalAlign=top;spacingLeft=4;spacingRight=4;overflow=hidden;rotatable=0;points=[[0,0.5],[1,0.5]];portConstraint=eastwest;sketch=1;curveFitting=1;jiggle=2;rounded=0;" parent="dlKlojqwLsHrzjU0dD4s-67" vertex="1">
                    <mxGeometry y="180" width="160" height="26" as="geometry"/>
                </mxCell>
                <mxCell id="JRaCH0oPApHVp65QEFQ3-21" style="edgeStyle=orthogonalEdgeStyle;rounded=0;orthogonalLoop=1;jettySize=auto;html=1;entryX=0.5;entryY=0;entryDx=0;entryDy=0;endArrow=baseDash;endFill=0;sketch=1;curveFitting=1;jiggle=2;" parent="WIyWlLk6GJQsqaUBKTNV-1" source="dlKlojqwLsHrzjU0dD4s-73" target="dlKlojqwLsHrzjU0dD4s-58" edge="1">
                    <mxGeometry relative="1" as="geometry"/>
                </mxCell>
                <mxCell id="JRaCH0oPApHVp65QEFQ3-22" style="edgeStyle=orthogonalEdgeStyle;rounded=0;orthogonalLoop=1;jettySize=auto;html=1;entryX=0.5;entryY=0;entryDx=0;entryDy=0;endArrow=baseDash;endFill=0;sketch=1;curveFitting=1;jiggle=2;" parent="WIyWlLk6GJQsqaUBKTNV-1" source="dlKlojqwLsHrzjU0dD4s-73" target="dlKlojqwLsHrzjU0dD4s-35" edge="1">
                    <mxGeometry relative="1" as="geometry"/>
                </mxCell>
                <mxCell id="dlKlojqwLsHrzjU0dD4s-73" value="AdministrateurRH" style="swimlane;fontStyle=0;align=center;verticalAlign=top;childLayout=stackLayout;horizontal=1;startSize=26;horizontalStack=0;resizeParent=1;resizeLast=0;collapsible=1;marginBottom=0;rounded=0;shadow=0;strokeWidth=1;sketch=1;curveFitting=1;jiggle=2;" parent="WIyWlLk6GJQsqaUBKTNV-1" vertex="1">
                    <mxGeometry y="-100" width="160" height="280" as="geometry">
                        <mxRectangle x="550" y="140" width="160" height="26" as="alternateBounds"/>
                    </mxGeometry>
                </mxCell>
                <mxCell id="dlKlojqwLsHrzjU0dD4s-74" value="id : int " style="text;align=left;verticalAlign=top;spacingLeft=4;spacingRight=4;overflow=hidden;rotatable=0;points=[[0,0.5],[1,0.5]];portConstraint=eastwest;sketch=1;curveFitting=1;jiggle=2;rounded=0;" parent="dlKlojqwLsHrzjU0dD4s-73" vertex="1">
                    <mxGeometry y="26" width="160" height="26" as="geometry"/>
                </mxCell>
                <mxCell id="JRaCH0oPApHVp65QEFQ3-7" value="nome : string" style="text;align=left;verticalAlign=top;spacingLeft=4;spacingRight=4;overflow=hidden;rotatable=0;points=[[0,0.5],[1,0.5]];portConstraint=eastwest;sketch=1;curveFitting=1;jiggle=2;rounded=0;" parent="dlKlojqwLsHrzjU0dD4s-73" vertex="1">
                    <mxGeometry y="52" width="160" height="26" as="geometry"/>
                </mxCell>
                <mxCell id="JRaCH0oPApHVp65QEFQ3-8" value="role : string" style="text;align=left;verticalAlign=top;spacingLeft=4;spacingRight=4;overflow=hidden;rotatable=0;points=[[0,0.5],[1,0.5]];portConstraint=eastwest;sketch=1;curveFitting=1;jiggle=2;rounded=0;" parent="dlKlojqwLsHrzjU0dD4s-73" vertex="1">
                    <mxGeometry y="78" width="160" height="26" as="geometry"/>
                </mxCell>
                <mxCell id="dlKlojqwLsHrzjU0dD4s-75" value="" style="line;html=1;strokeWidth=1;align=left;verticalAlign=middle;spacingTop=-1;spacingLeft=3;spacingRight=3;rotatable=0;labelPosition=right;points=[];portConstraint=eastwest;sketch=1;curveFitting=1;jiggle=2;rounded=0;" parent="dlKlojqwLsHrzjU0dD4s-73" vertex="1">
                    <mxGeometry y="104" width="160" height="16" as="geometry"/>
                </mxCell>
                <mxCell id="dlKlojqwLsHrzjU0dD4s-77" value="ajouterEmployé() : void()" style="text;align=left;verticalAlign=top;spacingLeft=4;spacingRight=4;overflow=hidden;rotatable=0;points=[[0,0.5],[1,0.5]];portConstraint=eastwest;sketch=1;curveFitting=1;jiggle=2;rounded=0;" parent="dlKlojqwLsHrzjU0dD4s-73" vertex="1">
                    <mxGeometry y="120" width="160" height="22" as="geometry"/>
                </mxCell>
                <mxCell id="dlKlojqwLsHrzjU0dD4s-76" value="modifierEmployé() void()" style="text;align=left;verticalAlign=top;spacingLeft=4;spacingRight=4;overflow=hidden;rotatable=0;points=[[0,0.5],[1,0.5]];portConstraint=eastwest;sketch=1;curveFitting=1;jiggle=2;rounded=0;" parent="dlKlojqwLsHrzjU0dD4s-73" vertex="1">
                    <mxGeometry y="142" width="160" height="26" as="geometry"/>
                </mxCell>
                <mxCell id="dlKlojqwLsHrzjU0dD4s-78" value="supprimerEmployé() void()" style="text;align=left;verticalAlign=top;spacingLeft=4;spacingRight=4;overflow=hidden;rotatable=0;points=[[0,0.5],[1,0.5]];portConstraint=eastwest;sketch=1;curveFitting=1;jiggle=2;rounded=0;" parent="dlKlojqwLsHrzjU0dD4s-73" vertex="1">
                    <mxGeometry y="168" width="160" height="26" as="geometry"/>
                </mxCell>
                <mxCell id="JRaCH0oPApHVp65QEFQ3-9" value="traiterDemandeCongé() void(=" style="text;align=left;verticalAlign=top;spacingLeft=4;spacingRight=4;overflow=hidden;rotatable=0;points=[[0,0.5],[1,0.5]];portConstraint=eastwest;sketch=1;curveFitting=1;jiggle=2;rounded=0;" parent="dlKlojqwLsHrzjU0dD4s-73" vertex="1">
                    <mxGeometry y="194" width="160" height="26" as="geometry"/>
                </mxCell>
                <mxCell id="JRaCH0oPApHVp65QEFQ3-10" value="générerFichePaie() : void()" style="text;align=left;verticalAlign=top;spacingLeft=4;spacingRight=4;overflow=hidden;rotatable=0;points=[[0,0.5],[1,0.5]];portConstraint=eastwest;sketch=1;curveFitting=1;jiggle=2;rounded=0;" parent="dlKlojqwLsHrzjU0dD4s-73" vertex="1">
                    <mxGeometry y="220" width="160" height="26" as="geometry"/>
                </mxCell>
                <mxCell id="dlKlojqwLsHrzjU0dD4s-79" value="" style="endArrow=none;html=1;rounded=0;startArrow=block;startFill=0;sketch=1;curveFitting=1;jiggle=2;" parent="WIyWlLk6GJQsqaUBKTNV-1" edge="1">
                    <mxGeometry width="50" height="50" relative="1" as="geometry">
                        <mxPoint x="720" y="800" as="sourcePoint"/>
                        <mxPoint x="800" y="800" as="targetPoint"/>
                    </mxGeometry>
                </mxCell>
                <mxCell id="dlKlojqwLsHrzjU0dD4s-82" value="&lt;div&gt;héritage&lt;/div&gt;&lt;div&gt;&lt;br&gt;&lt;/div&gt;" style="text;html=1;align=center;verticalAlign=middle;resizable=0;points=[];autosize=1;strokeColor=none;fillColor=none;sketch=1;curveFitting=1;jiggle=2;rounded=0;" parent="WIyWlLk6GJQsqaUBKTNV-1" vertex="1">
                    <mxGeometry x="620" y="783" width="70" height="40" as="geometry"/>
                </mxCell>
                <mxCell id="dlKlojqwLsHrzjU0dD4s-83" value="" style="endArrow=none;html=1;rounded=0;sketch=1;curveFitting=1;jiggle=2;" parent="WIyWlLk6GJQsqaUBKTNV-1" edge="1">
                    <mxGeometry width="50" height="50" relative="1" as="geometry">
                        <mxPoint x="720" y="840" as="sourcePoint"/>
                        <mxPoint x="800" y="840" as="targetPoint"/>
                    </mxGeometry>
                </mxCell>
                <mxCell id="dlKlojqwLsHrzjU0dD4s-84" value="assosiation" style="text;html=1;align=center;verticalAlign=middle;resizable=0;points=[];autosize=1;strokeColor=none;fillColor=none;sketch=1;curveFitting=1;jiggle=2;rounded=0;" parent="WIyWlLk6GJQsqaUBKTNV-1" vertex="1">
                    <mxGeometry x="620" y="823" width="80" height="30" as="geometry"/>
                </mxCell>
                <mxCell id="dlKlojqwLsHrzjU0dD4s-85" value="" style="endArrow=none;html=1;rounded=0;startArrow=diamond;startFill=0;sketch=1;curveFitting=1;jiggle=2;" parent="WIyWlLk6GJQsqaUBKTNV-1" edge="1">
                    <mxGeometry width="50" height="50" relative="1" as="geometry">
                        <mxPoint x="720" y="880" as="sourcePoint"/>
                        <mxPoint x="800" y="880" as="targetPoint"/>
                    </mxGeometry>
                </mxCell>
                <mxCell id="dlKlojqwLsHrzjU0dD4s-86" value="agrigation" style="text;html=1;align=center;verticalAlign=middle;resizable=0;points=[];autosize=1;strokeColor=none;fillColor=none;sketch=1;curveFitting=1;jiggle=2;rounded=0;" parent="WIyWlLk6GJQsqaUBKTNV-1" vertex="1">
                    <mxGeometry x="615" y="860" width="80" height="30" as="geometry"/>
                </mxCell>
                <mxCell id="dlKlojqwLsHrzjU0dD4s-87" value="" style="endArrow=none;html=1;rounded=0;startArrow=diamond;startFill=1;sketch=1;curveFitting=1;jiggle=2;" parent="WIyWlLk6GJQsqaUBKTNV-1" edge="1">
                    <mxGeometry width="50" height="50" relative="1" as="geometry">
                        <mxPoint x="720" y="924.5" as="sourcePoint"/>
                        <mxPoint x="790" y="924.5" as="targetPoint"/>
                    </mxGeometry>
                </mxCell>
                <mxCell id="dlKlojqwLsHrzjU0dD4s-88" value="la compisision" style="text;html=1;align=center;verticalAlign=middle;resizable=0;points=[];autosize=1;strokeColor=none;fillColor=none;sketch=1;curveFitting=1;jiggle=2;rounded=0;" parent="WIyWlLk6GJQsqaUBKTNV-1" vertex="1">
                    <mxGeometry x="610" y="910" width="100" height="30" as="geometry"/>
                </mxCell>
                <mxCell id="JRaCH0oPApHVp65QEFQ3-20" style="edgeStyle=orthogonalEdgeStyle;rounded=0;orthogonalLoop=1;jettySize=auto;html=1;entryX=0.417;entryY=0.027;entryDx=0;entryDy=0;entryPerimeter=0;endArrow=baseDash;endFill=0;sketch=1;curveFitting=1;jiggle=2;" parent="WIyWlLk6GJQsqaUBKTNV-1" source="dlKlojqwLsHrzjU0dD4s-73" target="dlKlojqwLsHrzjU0dD4s-23" edge="1">
                    <mxGeometry relative="1" as="geometry"/>
                </mxCell>
                <mxCell id="JRaCH0oPApHVp65QEFQ3-24" style="edgeStyle=orthogonalEdgeStyle;rounded=0;orthogonalLoop=1;jettySize=auto;html=1;endArrow=baseDash;endFill=0;sketch=1;curveFitting=1;jiggle=2;" parent="WIyWlLk6GJQsqaUBKTNV-1" source="JRaCH0oPApHVp65QEFQ3-10" target="dlKlojqwLsHrzjU0dD4s-67" edge="1">
                    <mxGeometry relative="1" as="geometry"/>
                </mxCell>
                <mxCell id="JRaCH0oPApHVp65QEFQ3-25" value="1" style="text;html=1;align=center;verticalAlign=middle;resizable=0;points=[];autosize=1;strokeColor=none;fillColor=none;sketch=1;curveFitting=1;jiggle=2;rounded=0;" parent="WIyWlLk6GJQsqaUBKTNV-1" vertex="1">
                    <mxGeometry x="-35" y="8" width="30" height="30" as="geometry"/>
                </mxCell>
                <mxCell id="JRaCH0oPApHVp65QEFQ3-26" value="*" style="text;html=1;align=center;verticalAlign=middle;resizable=0;points=[];autosize=1;strokeColor=none;fillColor=none;sketch=1;curveFitting=1;jiggle=2;rounded=0;" parent="WIyWlLk6GJQsqaUBKTNV-1" vertex="1">
                    <mxGeometry x="-195" y="258" width="30" height="30" as="geometry"/>
                </mxCell>
                <mxCell id="JRaCH0oPApHVp65QEFQ3-27" value="1" style="text;html=1;align=center;verticalAlign=middle;resizable=0;points=[];autosize=1;strokeColor=none;fillColor=none;sketch=1;curveFitting=1;jiggle=2;rounded=0;" parent="WIyWlLk6GJQsqaUBKTNV-1" vertex="1">
                    <mxGeometry x="85" y="188" width="30" height="30" as="geometry"/>
                </mxCell>
                <mxCell id="JRaCH0oPApHVp65QEFQ3-28" value="*" style="text;html=1;align=center;verticalAlign=middle;resizable=0;points=[];autosize=1;strokeColor=none;fillColor=none;sketch=1;curveFitting=1;jiggle=2;rounded=0;" parent="WIyWlLk6GJQsqaUBKTNV-1" vertex="1">
                    <mxGeometry x="65" y="280" width="30" height="30" as="geometry"/>
                </mxCell>
                <mxCell id="JRaCH0oPApHVp65QEFQ3-30" value="1" style="text;html=1;align=center;verticalAlign=middle;resizable=0;points=[];autosize=1;strokeColor=none;fillColor=none;sketch=1;curveFitting=1;jiggle=2;rounded=0;" parent="WIyWlLk6GJQsqaUBKTNV-1" vertex="1">
                    <mxGeometry x="355" y="548" width="30" height="30" as="geometry"/>
                </mxCell>
                <mxCell id="JRaCH0oPApHVp65QEFQ3-31" value="1" style="text;html=1;align=center;verticalAlign=middle;resizable=0;points=[];autosize=1;strokeColor=none;fillColor=none;sketch=1;curveFitting=1;jiggle=2;rounded=0;" parent="WIyWlLk6GJQsqaUBKTNV-1" vertex="1">
                    <mxGeometry x="-235" y="538" width="30" height="30" as="geometry"/>
                </mxCell>
            </root>
        </mxGraphModel>
    </diagram>
</mxfile>